{
    "asset" : {
        "generator" : "Khronos glTF Blender I/O v3.4.50",
        "version" : "2.0"
    },
    "scene" : 0,
    "scenes" : [
        {
            "name" : "Scene",
            "nodes" : [
                0
            ]
        }
    ],
    "nodes" : [
        {
            "extras" : {
                "collider_data" : "{\"colliders\":[{\"collider_type\":\"cuboid\",\"value\":[1,1,1],\"translation\":{\"x\":-0.000543,\"y\":0.087472,\"z\":-0.00163},\"rotation\":{\"x\":0,\"y\":0,\"z\":0,\"w\":1},\"scale\":{\"x\":0.107805,\"y\":0.081654,\"z\":0.13115}}]}"
            },
            "mesh" : 0,
            "name" : "rock"
        }
    ],
    "meshes" : [
        {
            "name" : "Cube.002",
            "primitives" : [
                {
                    "attributes" : {
                        "POSITION" : 0,
                        "TEXCOORD_0" : 1,
                        "NORMAL" : 2
                    },
                    "indices" : 3
                }
            ]
        }
    ],
    "accessors" : [
        {
            "bufferView" : 0,
            "componentType" : 5126,
            "count" : 144,
            "max" : [
                0.11432164907455444,
                0.175066277384758,
                0.1504373848438263
            ],
            "min" : [
                -0.11806125193834305,
                0.0008127316832542419,
                -0.1440766304731369
            ],
            "type" : "VEC3"
        },
        {
            "bufferView" : 1,
            "componentType" : 5126,
            "count" : 144,
            "type" : "VEC2"
        },
        {
            "bufferView" : 2,
            "componentType" : 5126,
            "count" : 144,
            "type" : "VEC3"
        },
        {
            "bufferView" : 3,
            "componentType" : 5123,
            "count" : 144,
            "type" : "SCALAR"
        }
    ],
    "bufferViews" : [
        {
            "buffer" : 0,
            "byteLength" : 1728,
            "byteOffset" : 0,
            "target" : 34962
        },
        {
            "buffer" : 0,
            "byteLength" : 1152,
            "byteOffset" : 1728,
            "target" : 34962
        },
        {
            "buffer" : 0,
            "byteLength" : 1728,
            "byteOffset" : 2880,
            "target" : 34962
        },
        {
            "buffer" : 0,
            "byteLength" : 288,
            "byteOffset" : 4608,
            "target" : 34963
        }
    ],
    "buffers" : [
        {
            "byteLength" : 4896,
            "uri" : "data:application/octet-stream;base64,"
        }
    ]
}
